<?xml version="1.0" encoding="utf-8"?>
<!-- Svg Vector Icons : http://www.onlinewebfonts.com/icon -->
<!DOCTYPE svg PUBLIC "-//W3C//DTD SVG 1.1//EN" "http://www.w3.org/Graphics/SVG/1.1/DTD/svg11.dtd">
<svg version="1.1" xmlns="http://www.w3.org/2000/svg" xmlns:xlink="http://www.w3.org/1999/xlink" x="0px" y="0px" viewBox="0 0 256 256" enable-background="new 0 0 256 256" xml:space="preserve">
<metadata> Svg Vector Icons : http://www.onlinewebfonts.com/icon </metadata>
<g><g><g><path fill="#000000" d="M116.7,10.3C88.9,13.2,64,24.9,44.4,44.5c-18.8,18.8-29.9,41.6-33.9,69c-0.8,5.5-0.8,23.6,0,29.1c3.9,27.4,15.1,50.3,33.9,69c18.7,18.7,41.7,30,69,33.9c5.4,0.8,23.6,0.8,29.1,0c22.6-3.2,42.9-11.8,59.6-25.4c23.8-19.2,38.8-46.1,43.3-77.5c0.8-5.5,0.8-23.6,0-29.1c-3.9-27.3-15.1-50.3-33.9-69c-18.3-18.3-40.6-29.5-66.9-33.5C138.8,10.1,122.6,9.6,116.7,10.3z M143.5,18.3c24,3.6,46,14.6,62.9,31.5c17.5,17.6,28.2,39.4,31.6,64.4c0.4,2.4,0.6,8.5,0.6,13.9c0,10-0.5,14.8-2.4,23.6c-2.6,12.2-8.9,27-15.8,37.4c-18.1,27.1-46,44.5-78.6,49c-5.7,0.8-22,0.8-27.7,0c-17.5-2.4-33.5-8.4-47.6-17.8C40,202.4,22.5,174.3,18,141.9c-0.8-5.7-0.8-22.5,0-27.9c5.3-36.4,25.9-66.3,57.3-83.4c13.4-7.3,26.1-11,44.3-13.1C123.1,17.1,139,17.6,143.5,18.3z"/><path fill="#000000" d="M134,79.6c-0.4,0.9-24.5,82.4-25.2,85.2c-0.3,1.1-0.3,1.1,5.7,1.1c5.4,0,6.1-0.1,6.3-0.8c4.7-15.6,25.2-85.6,25.2-86c0-0.3-1.9-0.5-5.8-0.5C134.7,78.6,134.4,78.6,134,79.6z"/><path fill="#000000" d="M70.5,110.7l-28.2,13.1l-0.1,5.3l-0.1,5.3l28.5,13.2c15.6,7.3,28.6,13.3,28.9,13.3c0.3,0.1,0.4-2.3,0.3-6.2l-0.1-6.4L78,138.7c-11.9-5.2-21.6-9.6-21.6-9.7c0-0.1,9.5-4.4,21.2-9.5c11.6-5.1,21.4-9.4,21.7-9.7c0.4-0.3,0.6-2.2,0.6-6.4c0-4.5-0.1-6-0.6-6C98.9,97.5,86,103.5,70.5,110.7z"/><path fill="#000000" d="M153.4,103.7v6.2l21.9,9.4c12.1,5.2,21.9,9.6,21.9,9.7c0,0.2-9.9,4.5-21.9,9.7l-21.9,9.4v6.3v6.4l1.5-0.7c0.8-0.4,13.6-6.3,28.5-13.1l27-12.4V129v-5.6l-28.2-12.9c-15.5-7.1-28.3-12.9-28.5-12.9C153.5,97.5,153.4,100.3,153.4,103.7z"/></g></g></g>
</svg>